HIERARCHY
ROOT Hips
{
  OFFSET 0.000000 0.000000 0.000000
  CHANNELS 6 Xposition Yposition Zposition Zrotation Yrotation Xrotation
  JOINT Spine
  {
    OFFSET -0.031383 2.039826 -0.231057
    CHANNELS 3 Zrotation Yrotation Xrotation
    JOINT Spine1
    {
      OFFSET -0.003250 2.062381 -0.068782
      CHANNELS 3 Zrotation Yrotation Xrotation
      JOINT Spine2
      {
        OFFSET 0.012045 2.084311 0.039502
        CHANNELS 3 Zrotation Yrotation Xrotation
        JOINT Neck
        {
          OFFSET -0.000019 1.753182 0.180902
          CHANNELS 3 Zrotation Yrotation Xrotation
          JOINT Head
          {
            OFFSET 0.025540 1.785965 -0.106842
            CHANNELS 3 Zrotation Yrotation Xrotation
            End Site
            {
              OFFSET 0 0 0
            }
          }
        }
        JOINT LeftShoulder
        {
          OFFSET 3.096568 1.335974 -0.044144
          CHANNELS 3 Zrotation Yrotation Xrotation
          JOINT LeftArm
          {
            OFFSET 5.342980 -0.000000 -0.000000
            CHANNELS 3 Zrotation Yrotation Xrotation
            JOINT LeftForeArm
            {
              OFFSET 3.672620 -0.000000 -0.000000
              CHANNELS 3 Zrotation Yrotation Xrotation
              JOINT LeftHand
              {
                OFFSET 0.599298 -0.000000 -0.000000
                CHANNELS 3 Zrotation Yrotation Xrotation
                JOINT LeftHandIndex1
                {
                  OFFSET 0.483170 -0.000000 -0.000000
                  CHANNELS 3 Zrotation Yrotation Xrotation
                  End Site
                  {
                    OFFSET 0 0 0
                  }
                }
              }
            }
          }
        }
        JOINT RightShoulder
        {
          OFFSET -3.164597 1.322727 -0.233822
          CHANNELS 3 Zrotation Yrotation Xrotation
          JOINT RightArm
          {
            OFFSET -5.549667 -0.018343 0.033481
            CHANNELS 3 Zrotation Yrotation Xrotation
            JOINT RightForeArm
            {
              OFFSET -3.694010 -0.000000 0.000000
              CHANNELS 3 Zrotation Yrotation Xrotation
              JOINT RightHand
              {
                OFFSET -0.638113 -0.000000 0.000000
                CHANNELS 3 Zrotation Yrotation Xrotation
                JOINT RightHandIndex1
                {
                  OFFSET -0.514463 -0.000000 0.000000
                  CHANNELS 3 Zrotation Yrotation Xrotation
                  End Site
                  {
                    OFFSET 0 0 0
                  }
                }
              }
            }
          }
        }
      }
    }
  }
  JOINT LeftUpLeg
  {
    OFFSET 2.630390 -7.226944 0.000000
    CHANNELS 3 Zrotation Yrotation Xrotation
    JOINT LeftLeg
    {
      OFFSET 2.706743 -7.436721 0.000000
      CHANNELS 3 Zrotation Yrotation Xrotation
      JOINT LeftFoot
      {
        OFFSET 0.150663 -0.413945 2.090267
        CHANNELS 3 Zrotation Yrotation Xrotation
        JOINT LeftToeBase
        {
          OFFSET 0.000000 -0.000000 1.075180
          CHANNELS 3 Zrotation Yrotation Xrotation
          End Site
          {
            OFFSET 0 0 0
          }
        }
      }
    }
  }
  JOINT RightUpLeg
  {
    OFFSET -2.570232 -7.061661 0.000000
    CHANNELS 3 Zrotation Yrotation Xrotation
    JOINT RightLeg
    {
      OFFSET -2.764606 -7.595698 0.000000
      CHANNELS 3 Zrotation Yrotation Xrotation
      JOINT RightFoot
      {
        OFFSET -0.241754 -0.647854 2.197187
        CHANNELS 3 Zrotation Yrotation Xrotation
        JOINT RightToeBase
        {
          OFFSET -0.000000 -0.000000 1.148030
          CHANNELS 3 Zrotation Yrotation Xrotation
          End Site
          {
            OFFSET 0 0 0
          }
        }
      }
    }
  }
}
MOTION
Frames: 10
Frame Time: 0.00833333
7.424170 10.454900 11.304600 173.229000 -1.932990 161.833000 -11.974900 19.600800 -68.333700 0.000000 0.000000 87.029300 -10.472900 0.000000 6.959650 0.000000 0.000000 0.801281 -1.155440 -13.613700 -73.746400 0.000000 0.000000 90.275900 -4.911830 0.000000 9.537470 0.000000 0.000000 -6.124490 -0.988244 7.001380 42.746200 -1.760600 0.120312 18.166400 -1.407300 -3.195700 0.052838 -4.638550 -3.812230 -14.552300 3.315400 -3.016470 0.251385 -0.000000 0.000000 0.000000 52.459600 -36.673400 34.707000 0.000000 0.000000 70.887200 18.711900 0.000000 -31.554800 0.000000 0.000000 7.125020 -0.000000 0.000000 0.000000 -66.652900 29.114300 24.819900 0.000000 0.000000 76.833800 38.721500 0.000000 -40.172500 0.000000 0.000000 7.125020
7.423350 10.456700 11.305800 173.131000 -1.977930 161.805000 -12.117000 19.565800 -68.287000 0.000000 0.000000 87.011600 -10.548800 0.000000 6.903720 0.000000 0.000000 -0.219036 -1.283560 -13.622200 -73.689700 0.000000 0.000000 90.254800 -2.452640 0.000000 10.476900 0.000000 0.000000 -18.926700 -1.092330 7.033470 42.844800 -1.722800 0.107469 18.148700 -1.308090 -3.215430 0.004398 -4.698690 -3.808940 -14.587600 3.313430 -3.011410 0.249705 -0.000000 -0.000000 0.000000 52.628500 -36.606300 34.476200 0.000000 0.000000 71.064100 18.765100 0.000000 -31.127900 0.000000 0.000000 7.125020 -0.000000 -0.000000 0.000000 -66.479600 29.171800 24.870300 0.000000 0.000000 76.830400 38.732800 0.000000 -40.374100 0.000000 0.000000 7.125020
7.423220 10.455500 11.306200 173.155000 -1.930560 161.828000 -12.136200 19.655200 -68.352500 0.000000 0.000000 87.049200 -10.729800 0.000000 6.725720 0.000000 0.000000 -1.713610 -1.247650 -13.561100 -73.739400 0.000000 0.000000 90.254000 -3.694420 0.000000 10.106500 0.000000 0.000000 -13.356000 -1.107180 7.064180 42.878800 -1.670720 0.154217 18.111500 -1.259020 -3.191630 -0.045645 -4.782590 -3.809900 -14.672100 3.331320 -2.996390 0.293976 0.000000 0.000000 0.000000 52.740700 -36.614600 34.383500 0.000000 0.000000 71.226300 18.849900 0.000000 -30.830500 0.000000 0.000000 7.125020 0.000000 0.000000 0.000000 -66.386600 29.173700 24.883100 0.000000 0.000000 76.752700 39.070300 0.000000 -40.525000 0.000000 0.000000 7.125020
7.423020 10.456100 11.309200 173.227000 -1.914960 161.889000 -12.068900 19.652500 -68.450200 0.000000 0.000000 87.089200 -10.761900 0.000000 6.692360 0.000000 0.000000 1.171520 -1.116670 -13.664000 -73.828400 0.000000 0.000000 90.244400 -2.495700 0.000000 10.516100 0.000000 0.000000 -18.830300 -1.012280 7.008010 42.735200 -1.700510 0.135665 18.146400 -1.335700 -3.188600 0.033177 -4.854510 -3.794480 -14.669300 3.401760 -2.975470 0.308982 0.000000 -0.000000 0.000000 52.749000 -36.586100 34.398100 0.000000 0.000000 71.254500 19.086300 0.000000 -31.061600 0.000000 0.000000 7.125020 0.000000 -0.000000 0.000000 -66.487300 29.204600 24.913600 0.000000 0.000000 76.671300 39.486100 0.000000 -40.498500 0.000000 0.000000 7.125020
7.424940 10.458900 11.311200 173.307000 -1.913870 161.877000 -11.968800 19.631200 -68.417700 0.000000 0.000000 87.104600 -10.716400 0.000000 6.711730 0.000000 0.000000 -1.193890 -0.984269 -13.742400 -73.812600 0.000000 0.000000 90.232300 -4.279970 0.000000 9.879010 0.000000 0.000000 -9.096820 -0.930136 6.969440 42.722600 -1.692900 0.110259 18.174000 -1.362290 -3.200130 0.068949 -4.922100 -3.820100 -14.876400 3.425400 -2.969560 0.422529 -0.000000 -0.000000 0.000000 52.835800 -36.497400 34.315100 0.000000 0.000000 71.255900 19.218600 0.000000 -31.008900 0.000000 0.000000 7.125020 -0.000000 -0.000000 0.000000 -66.463600 29.381000 24.959900 0.000000 0.000000 76.655700 38.353300 0.000000 -41.234400 0.000000 0.000000 7.125020
7.426620 10.454600 11.302700 173.405000 -1.800040 161.901000 -11.813000 19.750400 -68.465300 0.000000 0.000000 87.149700 -10.765900 0.000000 6.693490 0.000000 0.000000 -1.506510 -0.901207 -13.520100 -73.787600 0.000000 0.000000 90.221200 -3.204510 0.000000 10.322100 0.000000 0.000000 -15.049300 -0.800894 6.961010 42.719500 -1.711530 0.149050 18.175000 -1.460890 -3.170700 0.074690 -4.814640 -3.841460 -15.123400 3.348520 -2.984420 0.520213 0.000000 0.000000 0.000000 52.743300 -36.463600 34.379700 0.000000 0.000000 71.240200 19.020200 0.000000 -30.473100 0.000000 0.000000 7.125020 0.000000 0.000000 0.000000 -66.480200 29.442500 24.990200 0.000000 0.000000 76.653500 37.062000 0.000000 -41.919900 0.000000 0.000000 7.125020
7.426040 10.447100 11.292600 173.478000 -1.748150 161.961000 -11.722000 19.821300 -68.610500 0.000000 0.000000 87.216700 -10.827500 0.000000 6.598450 0.000000 0.000000 -2.303130 -0.908528 -13.331500 -73.791500 0.000000 0.000000 90.235100 -3.959450 0.000000 10.089500 0.000000 0.000000 -12.288500 -0.484938 6.853870 42.519600 -1.918510 0.115661 18.295200 -1.838400 -3.157990 0.269120 -4.479570 -3.837950 -15.129800 3.283450 -3.033480 0.470291 0.000000 0.000000 0.000000 52.456500 -36.400800 34.583400 0.000000 0.000000 71.253600 18.572900 0.000000 -29.922300 0.000000 0.000000 7.125020 0.000000 0.000000 0.000000 -66.871800 29.138100 24.984100 0.000000 0.000000 76.614600 38.478300 0.000000 -41.577900 0.000000 0.000000 7.125020
7.427550 10.446600 11.292600 173.428000 -1.855600 161.788000 -11.755000 19.723500 -68.382000 0.000000 0.000000 87.168900 -10.804800 0.000000 6.526190 0.000000 0.000000 -2.576380 -1.028430 -13.361900 -73.646100 0.000000 0.000000 90.302500 -3.602210 0.000000 10.185300 0.000000 0.000000 -14.166100 -0.749750 6.998010 42.923400 -1.668560 0.217438 18.112500 -1.458930 -3.133580 -0.046409 -4.630200 -3.893220 -14.842300 3.285060 -3.041510 0.422340 0.000000 0.000000 0.000000 53.270800 -36.419900 34.123400 0.000000 0.000000 71.257400 18.223100 0.000000 -29.878300 0.000000 0.000000 7.125020 0.000000 0.000000 0.000000 -66.696000 29.199400 24.682700 0.000000 0.000000 76.653600 39.987200 0.000000 -41.570400 0.000000 0.000000 7.125020
7.429420 10.452200 11.297700 173.301000 -1.950770 161.598000 -11.839100 19.589300 -68.040000 0.000000 0.000000 87.064900 -10.701400 0.000000 6.557810 0.000000 0.000000 -2.142430 -1.163680 -13.466000 -73.481600 0.000000 0.000000 90.327500 -3.177630 0.000000 10.238000 0.000000 0.000000 -15.499700 -0.877140 7.035500 43.173100 -1.653350 0.163030 18.098700 -1.356030 -3.186850 -0.131529 -4.712010 -3.857350 -14.763300 3.323460 -3.008310 0.403777 0.000000 0.000000 0.000000 53.181200 -36.437500 34.004200 0.000000 0.000000 71.377000 18.260800 0.000000 -30.190500 0.000000 0.000000 7.125020 0.000000 0.000000 0.000000 -66.495900 29.649700 24.682600 0.000000 0.000000 76.655500 37.222200 0.000000 -43.969200 0.000000 0.000000 7.125020
7.428280 10.459000 11.303600 173.256000 -1.994280 161.661000 -11.966800 19.501600 -68.067800 0.000000 0.000000 86.997300 -10.638700 0.000000 6.475300 0.000000 0.000000 -3.048070 -1.172680 -13.628500 -73.522900 0.000000 0.000000 90.292100 -3.456720 0.000000 10.112300 0.000000 0.000000 -13.273400 -0.903541 7.008150 43.093200 -1.670120 0.139582 18.093900 -1.352730 -3.191500 -0.117205 -4.646780 -3.847400 -14.802000 3.289080 -3.007530 0.414255 -0.000000 -0.000000 0.000000 53.039200 -36.484600 34.034800 0.000000 0.000000 71.488600 18.230200 0.000000 -30.156100 0.000000 0.000000 7.125020 -0.000000 -0.000000 0.000000 -66.440000 29.749900 24.674600 0.000000 0.000000 76.717300 35.993600 0.000000 -44.373100 0.000000 0.000000 7.125020
